<svg xmlns="http://www.w3.org/2000/svg" xmlns:xlink="http://www.w3.org/1999/xlink" width="501" height="166" viewBox="0 0 501 166">
  <defs>
    <clipPath id="clip-path">
      <rect id="Rectangle_20" data-name="Rectangle 20" width="495" height="162" transform="translate(329 412)" fill="#ff0054" stroke="#707070" stroke-width="1"/>
    </clipPath>
    <clipPath id="clip-path-2">
      <rect id="Rectangle_19" data-name="Rectangle 19" width="495" height="162" transform="translate(329 412)" fill="#00ffc0" stroke="#707070" stroke-width="1"/>
    </clipPath>
  </defs>
  <g id="netflixlogo" transform="translate(-329 -412)">
    <g id="Mask_Group_15" data-name="Mask Group 15" transform="translate(6 4)" clip-path="url(#clip-path)">
      <path id="Netflix_2015_logo" d="M68.064,125.154c-7.446,1.308-15.024,1.7-22.862,2.744L21.294,57.874V130.9c-7.446.784-14.239,1.829-21.294,2.874V0H19.858L47.031,75.9V0H68.064V125.154ZM109.216,48.99c8.1,0,20.511-.392,27.957-.392V69.5c-9.276,0-20.119,0-27.957.392v31.093c12.281-.784,24.561-1.83,36.971-2.222v20.118l-57.874,4.573V0h57.874V20.9H109.216V48.99ZM223.919,20.9H202.233v96.152c-7.055,0-14.109,0-20.9.261V20.9H159.645V0H223.92V20.9Zm33.966,26.651H286.5v20.9H257.885v47.423H237.373V0h58.4V20.9H257.885V47.554Zm71.853,50.035c11.889.261,23.907,1.177,35.535,1.829v20.642c-18.681-1.177-37.363-2.351-56.437-2.744V0h20.9V97.589ZM382.909,121.5c6.663.393,13.717.785,20.511,1.567V0H382.909ZM495,0,468.479,63.622,495,133.777c-7.839-1.045-15.678-2.482-23.516-3.789L456.461,91.319l-15.284,35.535c-7.579-1.308-14.895-1.7-22.47-2.745l26.912-61.271L421.318,0h22.469l13.717,35.143L472.138,0H495Z" transform="translate(329 426.112)" fill="#ff0054"/>
    </g>
    <g id="Mask_Group_14" data-name="Mask Group 14" clip-path="url(#clip-path-2)">
      <path id="Netflix_2015_logo-2" data-name="Netflix_2015_logo" d="M68.064,125.154c-7.446,1.308-15.024,1.7-22.862,2.744L21.294,57.874V130.9c-7.446.784-14.239,1.829-21.294,2.874V0H19.858L47.031,75.9V0H68.064V125.154ZM109.216,48.99c8.1,0,20.511-.392,27.957-.392V69.5c-9.276,0-20.119,0-27.957.392v31.093c12.281-.784,24.561-1.83,36.971-2.222v20.118l-57.874,4.573V0h57.874V20.9H109.216V48.99ZM223.919,20.9H202.233v96.152c-7.055,0-14.109,0-20.9.261V20.9H159.645V0H223.92V20.9Zm33.966,26.651H286.5v20.9H257.885v47.423H237.373V0h58.4V20.9H257.885V47.554Zm71.853,50.035c11.889.261,23.907,1.177,35.535,1.829v20.642c-18.681-1.177-37.363-2.351-56.437-2.744V0h20.9V97.589ZM382.909,121.5c6.663.393,13.717.785,20.511,1.567V0H382.909ZM495,0,468.479,63.622,495,133.777c-7.839-1.045-15.678-2.482-23.516-3.789L456.461,91.319l-15.284,35.535c-7.579-1.308-14.895-1.7-22.47-2.745l26.912-61.271L421.318,0h22.469l13.717,35.143L472.138,0H495Z" transform="translate(329 426.112)" fill="#00ffc0"/>
    </g>
  </g>
</svg>
