<svg xmlns="http://www.w3.org/2000/svg" xmlns:xlink="http://www.w3.org/1999/xlink" width="521" height="230" viewBox="0 0 521 230">
  <defs>
    <clipPath id="clip-path">
      <rect id="Rectangle_15" data-name="Rectangle 15" width="521" height="230" transform="translate(312 371)" fill="#fff" stroke="#707070" stroke-width="1"/>
    </clipPath>
  </defs>
  <g id="Mask_Group_13" data-name="Mask Group 13" transform="translate(-312 -371)" clip-path="url(#clip-path)">
    <g id="Artwork" transform="translate(255.694 344.532)">
      <circle id="circle190" cx="10.689" cy="10.689" r="10.689" transform="translate(488.85 103.961)" fill="#ff0054"/>
      <path id="path192" d="M346.874,160.227c5.243,0,8.269-3.933,8.067-7.764a28.511,28.511,0,0,0-.5-4.336c-3.227-13.915-14.52-24.2-27.931-24.2-15.932,0-28.839,14.419-28.839,32.166S310.573,188.26,326.5,188.26c9.983,0,17.142-3.63,22.285-9.378a6.24,6.24,0,0,0-1.008-9.277c-2.521-1.714-5.647-1.109-7.966.807-2.218,1.916-6.453,5.748-13.31,5.748-8.067,0-14.924-6.958-16.436-16.134h36.8Zm-20.47-24.1c7.26,0,13.512,5.647,15.831,13.411H310.573C312.892,141.674,319.144,136.128,326.4,136.128Z" fill="#fff"/>
      <path id="path194" d="M298.271,130.279a6.067,6.067,0,0,0-5.042-5.949c-8.773-1.311-17.041,1.916-21.78,7.865v-.807a6,6,0,0,0-6.05-6.05,6.068,6.068,0,0,0-6.05,6.05V180.8A6.179,6.179,0,0,0,265,187.05a6.042,6.042,0,0,0,6.453-6.05V155.488c0-11.294,8.47-20.57,20.167-19.26h1.21a5.943,5.943,0,0,0,5.445-5.949Z" fill="#fff"/>
      <path id="path196" d="M505.588,136.733a6.05,6.05,0,1,0-12.1,0V181a6.05,6.05,0,1,0,12.1,0Z" fill="#fff"/>
      <path id="path198" d="M415.643,103.255a6.05,6.05,0,0,0-12.1,0v26.923a20.9,20.9,0,0,0-15.428-6.151c-15.932,0-28.839,14.419-28.839,32.166s12.907,32.166,28.839,32.166a21.214,21.214,0,0,0,15.529-6.252,6.051,6.051,0,0,0,12-1.109Zm-27.427,73.106c-9.277,0-16.739-8.974-16.739-20.167,0-11.092,7.462-20.167,16.739-20.167s16.739,8.974,16.739,20.167S397.392,176.361,388.216,176.361Z" fill="#fff"/>
      <path id="path200" d="M478.766,103.255a6.05,6.05,0,0,0-12.1,0v26.923a20.9,20.9,0,0,0-15.428-6.151c-15.932,0-28.839,14.419-28.839,32.166s12.907,32.166,28.839,32.166a21.214,21.214,0,0,0,15.529-6.252,6.051,6.051,0,0,0,12-1.109Zm-27.528,73.106c-9.277,0-16.739-8.974-16.739-20.167,0-11.092,7.462-20.167,16.739-20.167s16.739,8.974,16.739,20.167S460.515,176.361,451.238,176.361Z" fill="#fff"/>
      <path id="path202" d="M536.242,181.1V136.128h5.344a5.5,5.5,0,0,0,5.546-5.042,5.413,5.413,0,0,0-5.344-5.748h-5.546v-8.47a6.179,6.179,0,0,0-5.647-6.252,6.042,6.042,0,0,0-6.453,6.05v8.773H519.1a5.5,5.5,0,0,0-5.546,5.042,5.413,5.413,0,0,0,5.344,5.748h5.143V181.2a6.068,6.068,0,0,0,6.05,6.05,6.24,6.24,0,0,0,6.151-6.151Z" fill="#fff"/>
      <g id="g208" transform="translate(0 -10.605)">
        <circle id="circle204" cx="91.303" cy="91.303" r="91.303" transform="translate(56.468 56.468)" fill="#6a61f0"/>
        <path id="path206" d="M210.94,140.968c0-6.857-6.216-12.3-13.789-12.3a14.816,14.816,0,0,0-9.607,3.428c-9.494-6.05-22.492-9.983-36.96-10.487l6.329-26.419,20.571,3.933c.226,4.638,4.521,8.369,9.833,8.369,5.425,0,9.833-3.933,9.833-8.773s-4.408-8.773-9.833-8.773a9.984,9.984,0,0,0-8.816,4.941L155.557,90.55a2.647,2.647,0,0,0-1.808.3,1.958,1.958,0,0,0-1.017,1.412l-7.008,29.444c-14.693.4-27.917,4.336-37.525,10.487a14.815,14.815,0,0,0-9.607-3.428c-7.686,0-13.789,5.546-13.789,12.3,0,5.042,3.391,9.277,8.138,11.193a20.01,20.01,0,0,0-.339,3.731c0,18.957,24.753,34.385,55.27,34.385s55.27-15.327,55.27-34.385a20.823,20.823,0,0,0-.339-3.731,12.437,12.437,0,0,0,8.138-11.294Zm-94.716,8.773c0-4.84,4.408-8.773,9.833-8.773s9.833,3.933,9.833,8.773-4.408,8.773-9.833,8.773C120.632,158.614,116.224,154.581,116.224,149.74Zm55.044,23.293c-6.782,6.05-19.667,6.453-23.4,6.453-3.843,0-16.728-.5-23.4-6.453a2.087,2.087,0,0,1,0-3.227,2.743,2.743,0,0,1,3.617,0c4.295,3.832,13.337,5.143,19.78,5.143s15.6-1.311,19.78-5.143a2.743,2.743,0,0,1,3.617,0A2.258,2.258,0,0,1,171.268,173.033Zm-1.808-14.419c-5.425,0-9.833-3.933-9.833-8.773s4.408-8.773,9.833-8.773,9.833,3.933,9.833,8.773C179.292,154.581,174.884,158.614,169.459,158.614Z" transform="translate(0 6.643)" fill="#00ffc0"/>
      </g>
    </g>
  </g>
</svg>
