<?xml version="1.0" encoding="UTF-8" standalone="no"?> <!-- Created with Vectornator for iOS (http://vectornator.io/) --><!DOCTYPE svg PUBLIC "-//W3C//DTD SVG 1.1//EN" "http://www.w3.org/Graphics/SVG/1.1/DTD/svg11.dtd">
<svg height="100%" style="fill-rule:evenodd;clip-rule:evenodd;stroke-linecap:round;stroke-linejoin:round;" xmlns:xlink="http://www.w3.org/1999/xlink" xmlns="http://www.w3.org/2000/svg" xml:space="preserve" width="100%" xmlns:vectornator="http://vectornator.io" version="1.1" viewBox="0 0 237.879 209">
<metadata>
<vectornator:setting key="DynamicGuides" value="1"/>
<vectornator:setting key="Units" value="Points"/>
<vectornator:setting key="GuidesVisible" value="1"/>
<vectornator:setting key="RulersVisible" value="1"/>
<vectornator:setting key="SnapToGuides" value="1"/>
<vectornator:setting key="GridSpacing" value="36"/>
</metadata>
<defs/>
<g id="cartIcon" vectornator:layerName="cartIcon">
<g opacity="1">
<path d="M143.943+209C134.071+209+126.043+201.845+126.043+193.05C126.043+184.255+134.074+177.1+143.943+177.1C146.329+177.094+148.695+177.521+150.929+178.359C153.03+179.141+154.969+180.303+156.65+181.786C158.265+183.201+159.58+184.925+160.516+186.858C162.409+190.77+162.409+195.332+160.516+199.244C159.58+201.177+158.265+202.901+156.65+204.316C154.969+205.799+153.03+206.961+150.929+207.743C148.695+208.58+146.328+209.006+143.943+209ZM53.978+209C44.106+209+36.078+201.845+36.078+193.05C36.078+184.255+44.109+177.1+53.978+177.1C56.3639+177.094+58.7312+177.521+60.965+178.359C63.0658+179.141+65.0049+180.303+66.686+181.786C68.3014+183.201+69.6161+184.925+70.552+186.858C72.4448+190.77+72.4448+195.332+70.552+199.244C69.6161+201.177+68.3014+202.901+66.686+204.316C65.005+205.799+63.0658+206.961+60.965+207.743C58.7314+208.58+56.3645+209.006+53.979+209L53.978+209ZM161.936+169.125L53.979+169.125C51.5934+169.131+49.2265+168.704+46.993+167.866C44.8922+167.084+42.953+165.922+41.272+164.439C39.6566+163.024+38.3419+161.3+37.406+159.367C35.2517+154.921+35.5658+149.675+38.235+145.518L50.38+125.98L17.993+65.45L0+65.45L0+49.5L29.419+49.5L37.876+65.45L170.933+65.45C173.266+65.4276+175.527+66.2607+177.287+67.792C178.943+69.1979+179.907+71.253+179.93+73.425C179.94+74.7775+179.565+76.105+178.85+77.253L146.643+129.011C143.508+134.078+137.476+137.225+130.899+137.225L63.875+137.225L55.775+150.225L55.505+151.182C55.5068+151.726+55.7447+152.243+56.157+152.598C56.6019+152.98+57.171+153.185+57.757+153.176L161.937+153.176L161.937+169.125L161.936+169.125ZM45.213+79.49L67.093+122.716L132.56+122.716L156.814+79.49L45.213+79.49Z" opacity="1" fill="#ffffff"/>
<path d="M134.095+122.715L66.274+122.715L43.608+77.886L159.221+77.886L153.203+88.624L153.203+78.228L141.565+78.228L141.565+89.046L152.965+89.046L134.916+121.251L134.916+113.178L123.279+113.178L123.279+122.332L134.308+122.332L134.093+122.715L134.095+122.715ZM104.995+113.177L104.995+113.177L104.995+122.331L116.63+122.331L116.63+113.178L104.995+113.177ZM86.709+113.177L86.709+113.177L86.709+122.331L98.343+122.331L98.343+113.178L86.709+113.177ZM68.422+113.177L68.422+113.177L68.422+122.331L80.057+122.331L80.057+113.178L68.422+113.177ZM141.565+95.703L141.565+106.521L143.038+106.521L148.876+95.703L141.565+95.703ZM123.279+95.703L123.279+106.521L134.916+106.521L134.916+95.703L123.279+95.703ZM104.992+95.703L104.992+106.521L116.63+106.521L116.63+95.703L104.992+95.703ZM86.706+95.703L86.706+106.521L98.343+106.521L98.343+95.703L86.706+95.703ZM68.419+95.703L68.419+106.521L80.057+106.521L80.057+95.703L68.419+95.703ZM52.875+95.703L58.196+106.521L61.77+106.521L61.77+95.703L52.875+95.703ZM123.279+78.228L123.279+89.046L134.916+89.046L134.916+78.228L123.279+78.228ZM104.992+78.228L104.992+89.046L116.63+89.046L116.63+78.228L104.992+78.228ZM86.708+78.228L86.708+89.046L98.343+89.046L98.343+78.228L86.708+78.228ZM68.421+78.228L68.421+89.046L80.057+89.046L80.057+78.228L68.421+78.228ZM50.133+78.228L50.133+89.046L61.77+89.046L61.77+78.228L50.133+78.228Z" opacity="1" fill="#f7efef"/>
</g>
<g opacity="1">
<path d="M150.879+43C150.879+19.2518+170.355+0+194.379+0C218.403+0+237.879+19.2518+237.879+43C237.879+66.7482+218.403+86+194.379+86C170.355+86+150.879+66.7482+150.879+43Z" opacity="1" fill="#ff0054"/>
<text x="0" font-family="OpenSans-Bold" y="0" text-anchor="start" vectornator:text="3" fill="#ffffff" font-size="30" vectornator:width="20.124" opacity="1" transform="matrix(1 0 0 1 184.317 22)">
<tspan x="0" y="32" textLength="17.124">
3</tspan>
</text>
</g>
</g>
</svg>
