<?xml version="1.0" encoding="UTF-8" standalone="no"?> <!-- Created with Vectornator for iOS (http://vectornator.io/) --><!DOCTYPE svg PUBLIC "-//W3C//DTD SVG 1.1//EN" "http://www.w3.org/Graphics/SVG/1.1/DTD/svg11.dtd">
<svg height="100%" style="fill-rule:evenodd;clip-rule:evenodd;stroke-linecap:round;stroke-linejoin:round;" xmlns:xlink="http://www.w3.org/1999/xlink" xmlns="http://www.w3.org/2000/svg" xml:space="preserve" width="100%" xmlns:vectornator="http://vectornator.io" version="1.1" viewBox="0 0 653.37 223.104">
<metadata>
<vectornator:setting key="DimensionsVisible" value="1"/>
<vectornator:setting key="New" value="1"/>
<vectornator:setting key="SnapToPoints" value="0"/>
<vectornator:setting key="GuidesVisible" value="1"/>
<vectornator:setting key="RulersVisible" value="1"/>
<vectornator:setting key="CMYKEnabledKey" value="0"/>
<vectornator:setting key="SnapToEdges" value="0"/>
<vectornator:setting key="DisplayWhiteBackground" value="0"/>
<vectornator:setting key="SnapToGuides" value="1"/>
<vectornator:setting key="GridSpacing" value="36"/>
<vectornator:setting key="Units" value="Pixels"/>
<vectornator:setting key="DynamicGuides" value="0"/>
<vectornator:setting key="SnapToGrid" value="0"/>
</metadata>
<defs/>
<g id="Layer 1" vectornator:layerName="Layer 1">
<g opacity="1">
<path d="M558.975+31.1571L574.525+40.547L560.712+41.6376L558.975+31.1571Z" opacity="1" fill="#e30914"/>
<path d="M621.711+31.1613L637.203+40.8358L615.762+40.863L621.711+31.1613Z" opacity="1" fill="#e30914"/>
<path d="M592.793+191.343L608.24+200.773L607.398+191.797L592.793+191.343Z" opacity="1" fill="#e30914"/>
<path d="M527.838+183.571L543.302+192.921L547.453+185.454L527.838+183.571Z" opacity="1" fill="#e30914"/>
<path d="M478.94+178.912L494.589+188.209L495.497+178.409L478.94+178.912Z" opacity="1" fill="#e30914"/>
<path d="M504.836+29.9518L520.529+39.4231L503.272+40.7681L504.836+29.9518Z" opacity="1" fill="#e30914"/>
<path d="M457.804+150.794L473.547+160.515L455.941+161.275L457.804+150.794Z" opacity="1" fill="#e30914"/>
<path d="M413.88+29.938L429.465+39.3421L412.156+40.824L413.88+29.938Z" opacity="1" fill="#e30914"/>
<path d="M387.894+173.848L403.401+183.312L404.155+174.233L387.894+173.848Z" opacity="1" fill="#e30914"/>
<path d="M299.937+171.871L315.536+181.351L315.843+170.627L299.937+171.871Z" opacity="1" fill="#e30914"/>
<path d="M360.754+87.913L376.425+97.3252L359.794+98.8996L360.754+87.913Z" opacity="1" fill="#e30914"/>
<path d="M371.925+29.9979L387.352+39.326L371.069+40.3928L371.925+29.9979Z" opacity="1" fill="#e30914"/>
<path d="M283.773+29.7943L299.648+39.6844L282.86+41.094L283.773+29.7943Z" opacity="1" fill="#e30914"/>
<path d="M246.326+182.237L230.752+172.991L247.554+171.67L246.326+182.237Z" opacity="1" fill="#e30914"/>
<path d="M219.51+64.3285L203.897+54.7686L220.19+54.8092L219.51+64.3285Z" opacity="1" fill="#e30914"/>
<path d="M187.96+29.9811L190.906+31.7879L203.374+39.4346L185.482+39.8233L187.96+29.9811Z" opacity="1" fill="#e30914"/>
<path d="M175.959+90.035L191.374+99.4884L173.481+99.8772L175.959+90.035Z" opacity="1" fill="#e30914"/>
<path d="M187.741+150.998L203.58+160.577L187.113+162.464" opacity="1" fill="#e30914"/>
<path d="M131.402+190.2L115.826+180.826L135.824+177.542L131.402+190.2Z" opacity="1" fill="#e30914"/>
<path d="M78.531+196.289L63.1507+186.747C63.1507+186.747+78.8588+182.883+81.362+183.687C83.8652+184.491+78.531+196.289+78.531+196.289Z" opacity="1" fill="#e30914"/>
<path d="M107.498+39.4212L91.8414+29.8662L91.3961+40.8057" opacity="1" fill="#e30914"/>
<g opacity="1">
<path d="M575.247+117.289L545.759+41.2752L574.481+40.7416L591.096+83.1342L609.708+40.6153L637.171+40.7666L603.721+117.969L636.984+203.862L608.22+200.86L589.905+154.429L570.948+197.024L543.256+193.106" opacity="1" fill="#e30914"/>
<path d="M23.4466+39.4164C31.4466+39.7497+39.5403+39.1514+47.4466+40.4164C49.2192+40.7+48.78+43.7497+49.4466+45.4164C60.2546+72.4364+66.4359+102.395+79.4466+128.416C79.9466+84.4164+79.9466+84.4164+80.4466+40.4164C93.9466+39.9164+93.9466+39.9164+107.447+39.4164C107.447+116.416+107.447+116.416+107.447+193.416C98.1235+193.416+87.311+193.462+78.4466+196.416C78.4466+174.792+60.2113+134.946+50.4466+115.416C49.9466+157.416+49.9466+157.416+49.4466+199.416C40.4404+200.542+31.3453+201.637+22.4466+203.416C22.9466+121.416+22.9466+121.416+23.4466+39.4164Z" opacity="1" fill="#e30914"/>
<path d="M220.447+39.4164C259.947+39.4164+259.947+39.4164+299.447+39.4164C299.447+51.9164+299.447+51.9164+299.447+64.4164C286.447+64.9164+286.447+64.9164+273.447+65.4164C272.947+123.916+272.947+123.916+272.447+182.416C259.447+182.416+259.447+182.416+246.447+182.416C246.447+123.416+246.447+123.416+246.447+64.4164C232.947+64.4164+232.947+64.4164+219.447+64.4164C219.947+51.9164+219.947+51.9164+220.447+39.4164Z" opacity="1" fill="#e30914"/>
<path d="M132.447+39.4164C167.947+39.4164+167.947+39.4164+203.447+39.4164C203.447+51.9164+203.447+51.9164+203.447+64.4164C180.947+64.9164+180.947+64.9164+158.447+65.4164C157.947+81.9164+157.947+81.9164+157.447+98.4164C174.447+98.9164+174.447+98.9164+191.447+99.4164C191.947+111.916+191.947+111.916+192.447+124.416C175.447+124.416+175.447+124.416+158.447+124.416C157.947+143.416+157.947+143.416+157.447+162.416C172.952+162.416+187.964+161.277+203.447+160.416C203.447+172.916+203.447+172.916+203.447+185.416C179.477+185.416+155.321+188.427+131.447+190.416C131.947+114.916+131.947+114.916+132.447+39.4164Z" opacity="1" fill="#e30914"/>
<path d="M404.447+39.4164C416.947+39.4164+416.947+39.4164+429.447+39.4164C429.447+98.9164+429.447+98.9164+429.447+158.416C444.184+158.416+458.745+159.436+473.447+160.416C473.447+173.416+473.447+173.416+473.447+186.416C450.243+186.416+426.628+184.189+403.447+183.416C403.947+111.416+403.947+111.416+404.447+39.4164Z" opacity="1" fill="#e30914"/>
<path d="M316.447+39.4164C351.947+39.4164+351.947+39.4164+387.447+39.4164C387.447+52.4164+387.447+52.4164+387.447+65.4164C364.947+65.4164+364.947+65.4164+342.447+65.4164C341.947+81.4164+341.947+81.4164+341.447+97.4164C358.947+97.4164+358.947+97.4164+376.447+97.4164C376.447+110.416+376.447+110.416+376.447+123.416C359.447+123.416+359.447+123.416+342.447+123.416C341.947+152.416+341.947+152.416+341.447+181.416C328.447+181.416+328.447+181.416+315.447+181.416C315.947+110.416+315.947+110.416+316.447+39.4164Z" opacity="1" fill="#e30914"/>
<path d="M495.447+39.4164C507.947+39.4164+507.947+39.4164+520.447+39.4164C520.447+114.416+520.447+114.416+520.447+189.416C503.768+189.416+512.436+189.701+494.447+188.416C494.947+113.916+494.947+113.916+495.447+39.4164Z" opacity="1" fill="#e30914"/>
</g>
<path d="M22.9817+203.105L7.15846+192.985L36.6768+187.806" opacity="1" fill="#e30914"/>
<g opacity="1">
<path d="M559.699+107.872L530.211+31.8584L558.934+31.3248L575.548+73.7175L594.161+31.1985L621.624+31.3498L588.173+108.552L621.436+194.445L592.673+191.444L574.357+145.012L555.4+187.607L527.708+183.69" opacity="1" fill="#00ffc0"/>
<path d="M7.89885+29.9996C15.8988+30.333+23.9925+29.7346+31.8988+30.9996C33.6714+31.2832+33.2322+34.333+33.8988+35.9996C44.7068+63.0196+50.8881+92.9782+63.8988+119C64.3988+74.9996+64.3988+74.9996+64.8988+30.9996C78.3988+30.4996+78.3988+30.4996+91.8988+29.9996C91.8988+107+91.8988+107+91.8988+184C82.5757+184+71.7632+184.045+62.8988+187C62.8988+165.376+44.6635+125.529+34.8988+106C34.3988+148+34.3988+148+33.8988+190C24.8926+191.125+15.7975+192.22+6.89885+194C7.39885+112+7.39885+112+7.89885+29.9996Z" opacity="1" fill="#00ffc0"/>
<path d="M204.899+29.9996C244.399+29.9996+244.399+29.9996+283.899+29.9996C283.899+42.4996+283.899+42.4996+283.899+54.9996C270.899+55.4996+270.899+55.4996+257.899+55.9996C257.399+114.5+257.399+114.5+256.899+173C243.899+173+243.899+173+230.899+173C230.899+114+230.899+114+230.899+54.9996C217.399+54.9996+217.399+54.9996+203.899+54.9996C204.399+42.4996+204.399+42.4996+204.899+29.9996Z" opacity="1" fill="#00ffc0"/>
<path d="M116.899+29.9996C152.399+29.9996+152.399+29.9996+187.899+29.9996C187.899+42.4996+187.899+42.4996+187.899+54.9996C165.399+55.4996+165.399+55.4996+142.899+55.9996C142.399+72.4996+142.399+72.4996+141.899+88.9996C158.899+89.4996+158.899+89.4996+175.899+89.9996C176.399+102.5+176.399+102.5+176.899+115C159.899+115+159.899+115+142.899+115C142.399+134+142.399+134+141.899+153C157.404+153+172.416+151.86+187.899+151C187.899+163.5+187.899+163.5+187.899+176C163.93+176+139.773+179.01+115.899+181C116.399+105.5+116.399+105.5+116.899+29.9996Z" opacity="1" fill="#00ffc0"/>
<path d="M388.899+29.9996C401.399+29.9996+401.399+29.9996+413.899+29.9996C413.899+89.4996+413.899+89.4996+413.899+149C428.636+149+443.197+150.02+457.899+151C457.899+164+457.899+164+457.899+177C434.695+177+411.08+174.772+387.899+174C388.399+102+388.399+102+388.899+29.9996Z" opacity="1" fill="#00ffc0"/>
<path d="M300.899+29.9996C336.399+29.9996+336.399+29.9996+371.899+29.9996C371.899+42.9996+371.899+42.9996+371.899+55.9996C349.399+55.9996+349.399+55.9996+326.899+55.9996C326.399+71.9996+326.399+71.9996+325.899+87.9996C343.399+87.9996+343.399+87.9996+360.899+87.9996C360.899+101+360.899+101+360.899+114C343.899+114+343.899+114+326.899+114C326.399+143+326.399+143+325.899+172C312.899+172+312.899+172+299.899+172C300.399+101+300.399+101+300.899+29.9996Z" opacity="1" fill="#00ffc0"/>
<path d="M479.899+29.9996C492.399+29.9996+492.399+29.9996+504.899+29.9996C504.899+105+504.899+105+504.899+180C488.22+180+496.889+180.285+478.899+179C479.399+104.5+479.399+104.5+479.899+29.9996Z" opacity="1" fill="#00ffc0"/>
</g>
<path d="M32.0584+30.7252L48.4538+41.0915L35.4805+39.9215L32.0584+30.7252Z" opacity="1" fill="#e30914"/>
</g>
</g>
</svg>
