<svg xmlns="http://www.w3.org/2000/svg" xmlns:xlink="http://www.w3.org/1999/xlink" width="382" height="173" viewBox="0 0 382 173">
  <defs>
    <clipPath id="clip-path">
      <rect id="Rectangle_22" data-name="Rectangle 22" width="382" height="172" transform="translate(397 425.915)" fill="#fff" stroke="#707070" stroke-width="1"/>
    </clipPath>
  </defs>
  <g id="unplash_logo" data-name="unplash logo" transform="translate(-385 -406)">
    <g id="Mask_Group_16" data-name="Mask Group 16" transform="translate(-12 -18.915)" clip-path="url(#clip-path)">
      <path id="Unsplash_Logo_Full_Stacked" d="M26.783,115.621h8.639v27.614c0,10.915-7.716,17.783-17.741,17.783S0,154.124,0,143.235V115.621H8.639v27.707c0,5.818,3.9,9.236,9.042,9.236s9.1-3.442,9.1-9.236Zm30.83,12.77a10.2,10.2,0,0,0-8.891,4.635v-3.82H40.645v30.813h8.329V142.294c0-3.568,2.133-6.389,5.76-6.389,4.013,0,5.7,2.7,5.7,6.137v17.976h8.329V140.607C68.763,133.84,65.253,128.391,57.613,128.391Zm30.544,12.963-4.576-.94c-1.738-.353-2.821-1.251-2.821-2.754,0-1.755,1.57-3.065,3.761-3.065,3.073,0,4.29,1.587,4.593,3.442h7.179c-.059-4.2-3.409-9.764-11.645-9.764-6.641,0-11.528,4.567-11.528,10.075,0,4.324,2.7,7.892,8.648,9.236l4.257.94c2.384.5,3.358,1.629,3.358,3.006,0,1.629-1.511,3.073-4.265,3.073-3.358,0-5.13-1.889-5.55-4.08H72.146c.411,4.6,3.753,10.461,13.014,10.461,8.077,0,12.157-5.13,12.157-10.142,0-4.542-3.073-8.236-9.16-9.487Zm44.574,3.2c0,9.328-5.818,16.213-14.525,16.213-4.257,0-7.388-1.679-8.891-3.753v14.9H101v-42.71h8.077v3.82c1.377-2.376,4.828-4.509,9.454-4.509,9.017,0,14.214,6.893,14.214,16.036Zm-8.2.059c0-5.449-3.358-8.639-7.632-8.639s-7.707,3.19-7.707,8.639,3.442,8.707,7.707,8.707,7.649-3.2,7.649-8.707Zm47.966-15.407h8.077v30.813h-8.329v-3.753c-1.419,2.477-4.626,4.5-8.891,4.5-8.7,0-14.525-6.885-14.525-16.213,0-9.143,5.2-16.036,14.214-16.036,4.635,0,7.985,2.149,9.454,4.509Zm-.126,15.407c0-5.449-3.442-8.639-7.7-8.639s-7.64,3.19-7.64,8.639,3.358,8.707,7.64,8.707,7.716-3.258,7.716-8.707Zm-35.75,15.407h8.329v-44.4h-8.329Zm93.43-31.619c-2.947,0-6.322.991-8.329,3.358V115.62h-8.329V160h8.262v-18.11c.185-3.358,2.258-6.011,5.76-6.011,4.013,0,5.7,2.7,5.7,6.146v17.967h8.329V140.582C241.467,133.848,237.84,128.4,230.049,128.4Zm-29.638,12.955-4.584-.94c-1.738-.353-2.813-1.251-2.813-2.754,0-1.755,1.57-3.065,3.761-3.065,3.073,0,4.29,1.587,4.584,3.442h7.187c-.059-4.2-3.409-9.764-11.654-9.764-6.633,0-11.519,4.567-11.519,10.075,0,4.324,2.7,7.892,8.639,9.236l4.265.94c2.376.5,3.358,1.629,3.358,3.006,0,1.629-1.5,3.073-4.265,3.073-3.358,0-5.122-1.889-5.55-4.08h-7.447c.411,4.6,3.753,10.461,13.022,10.461,8.077,0,12.149-5.13,12.149-10.142,0-4.542-3.064-8.236-9.135-9.487ZM172.805,43.785H141.623V71.366H105V43.785H73.817V98.971h98.988ZM141.623,0H105V27.6h36.623Z" transform="translate(467.232 426)" fill="#fffdfd"/>
    </g>
    <rect id="Rectangle_23" data-name="Rectangle 23" width="38" height="29" transform="translate(559 406)" fill="#00ffc0"/>
  </g>
</svg>
